<svg xmlns="http://www.w3.org/2000/svg" xmlns:xlink="http://www.w3.org/1999/xlink" width="2000" zoomAndPan="magnify" viewBox="0 0 1500 1499.999933" height="2000" preserveAspectRatio="xMidYMid meet" version="1.0"><defs><g/><clipPath id="3b4b111565"><rect x="0" width="1483" y="0" height="892"/></clipPath></defs><g transform="matrix(1, 0, 0, 1, 0, 272)"><g clip-path="url(#3b4b111565)"><g fill="#161616" fill-opacity="1"><g transform="translate(-3.74162, 824.813174)"><g><path d="M 17.484375 0 L 17.484375 -201.921875 L 58.953125 -201.921875 L 58.953125 -120.484375 L 146.5 -120.484375 L 146.5 -201.921875 L 187.96875 -201.921875 L 187.96875 0 L 146.5 0 L 146.5 -85.78125 L 58.953125 -85.78125 L 58.953125 0 Z M 17.484375 0 "/></g></g><g transform="translate(201.709288, 824.813174)"><g><path d="M 106.25 2.84375 C 88.363281 2.84375 72.28125 -1.265625 58 -9.484375 C 43.726562 -17.703125 32.457031 -29.535156 24.1875 -44.984375 C 15.925781 -60.441406 11.796875 -79.054688 11.796875 -100.828125 C 11.796875 -122.691406 15.925781 -141.367188 24.1875 -156.859375 C 32.457031 -172.359375 43.726562 -184.21875 58 -192.4375 C 72.28125 -200.65625 88.363281 -204.765625 106.25 -204.765625 C 124.132812 -204.765625 140.191406 -200.65625 154.421875 -192.4375 C 168.648438 -184.21875 179.898438 -172.359375 188.171875 -156.859375 C 196.441406 -141.367188 200.578125 -122.691406 200.578125 -100.828125 C 200.578125 -79.054688 196.441406 -60.421875 188.171875 -44.921875 C 179.898438 -29.429688 168.648438 -17.597656 154.421875 -9.421875 C 140.191406 -1.242188 124.132812 2.84375 106.25 2.84375 Z M 106.25 -33.875 C 116.726562 -33.875 125.894531 -36.445312 133.75 -41.59375 C 141.613281 -46.75 147.734375 -54.316406 152.109375 -64.296875 C 156.492188 -74.285156 158.6875 -86.460938 158.6875 -100.828125 C 158.6875 -115.285156 156.492188 -127.523438 152.109375 -137.546875 C 147.734375 -147.578125 141.613281 -155.164062 133.75 -160.3125 C 125.894531 -165.46875 116.726562 -168.046875 106.25 -168.046875 C 95.851562 -168.046875 86.703125 -165.445312 78.796875 -160.25 C 70.898438 -155.0625 64.757812 -147.472656 60.375 -137.484375 C 55.988281 -127.503906 53.796875 -115.285156 53.796875 -100.828125 C 53.796875 -86.460938 55.988281 -74.3125 60.375 -64.375 C 64.757812 -54.4375 70.898438 -46.867188 78.796875 -41.671875 C 86.703125 -36.472656 95.851562 -33.875 106.25 -33.875 Z M 106.25 -33.875 "/></g></g><g transform="translate(414.071802, 824.813174)"><g><path d="M 17.484375 0 L 17.484375 -201.921875 L 96.765625 -201.921875 C 112.035156 -201.921875 125.085938 -199.207031 135.921875 -193.78125 C 146.765625 -188.363281 155.054688 -180.734375 160.796875 -170.890625 C 166.535156 -161.046875 169.40625 -149.4375 169.40625 -136.0625 C 169.40625 -122.78125 166.46875 -111.304688 160.59375 -101.640625 C 154.71875 -91.972656 146.269531 -84.5625 135.25 -79.40625 C 124.226562 -74.257812 110.945312 -71.6875 95.40625 -71.6875 L 42.140625 -71.6875 L 42.140625 -105.171875 L 90.390625 -105.171875 C 98.523438 -105.171875 105.300781 -106.363281 110.71875 -108.75 C 116.144531 -111.144531 120.234375 -114.644531 122.984375 -119.25 C 125.742188 -123.863281 127.125 -129.46875 127.125 -136.0625 C 127.125 -142.84375 125.742188 -148.554688 122.984375 -153.203125 C 120.234375 -157.859375 116.144531 -161.425781 110.71875 -163.90625 C 105.300781 -166.394531 98.476562 -167.640625 90.25 -167.640625 L 58.953125 -167.640625 L 58.953125 0 Z M 130.375 0 L 81.859375 -91.75 L 126.578125 -91.75 L 176.046875 0 Z M 130.375 0 "/></g></g><g transform="translate(595.941933, 824.813174)"><g><path d="M 5.421875 0 L 74.9375 -201.921875 L 128.875 -201.921875 L 199.765625 0 L 153.6875 0 L 121.421875 -97.578125 C 117.535156 -110.222656 113.582031 -123.882812 109.5625 -138.5625 C 105.539062 -153.25 101.273438 -169.398438 96.765625 -187.015625 L 106.25 -187.015625 C 101.820312 -169.398438 97.707031 -153.207031 93.90625 -138.4375 C 90.113281 -123.664062 86.320312 -110.046875 82.53125 -97.578125 L 50.953125 0 Z M 48.921875 -46.21875 L 48.921875 -78.875 L 156.25 -78.875 L 156.25 -46.21875 Z M 48.921875 -46.21875 "/></g></g><g transform="translate(801.121796, 824.813174)"><g><path d="M 13.6875 0 L 13.6875 -26.421875 L 97.296875 -140.8125 C 102.359375 -147.675781 107.867188 -154.5625 113.828125 -161.46875 C 119.796875 -168.382812 125.804688 -175.273438 131.859375 -182.140625 L 135.390625 -168.59375 C 126.441406 -167.957031 117.492188 -167.570312 108.546875 -167.4375 C 99.609375 -167.300781 90.664062 -167.234375 81.71875 -167.234375 L 14.09375 -167.234375 L 14.09375 -201.921875 L 168.59375 -201.921875 L 168.59375 -175.359375 L 86.59375 -62.875 C 81.269531 -55.65625 75.507812 -48.453125 69.3125 -41.265625 C 63.125 -34.085938 56.914062 -26.925781 50.6875 -19.78125 L 47.15625 -33.34375 C 56.375 -33.96875 65.585938 -34.347656 74.796875 -34.484375 C 84.015625 -34.617188 93.234375 -34.6875 102.453125 -34.6875 L 169.125 -34.6875 L 169.125 0 Z M 13.6875 0 "/></g></g><g transform="translate(983.669534, 824.813174)"><g><path d="M 58.953125 -201.921875 L 58.953125 0 L 17.484375 0 L 17.484375 -201.921875 Z M 58.953125 -201.921875 "/></g></g></g><g fill="#161616" fill-opacity="1"><g transform="translate(1060.239313, 824.813174)"><g><path d="M 106.25 2.84375 C 88.363281 2.84375 72.28125 -1.265625 58 -9.484375 C 43.726562 -17.703125 32.457031 -29.535156 24.1875 -44.984375 C 15.925781 -60.441406 11.796875 -79.054688 11.796875 -100.828125 C 11.796875 -122.691406 15.925781 -141.367188 24.1875 -156.859375 C 32.457031 -172.359375 43.726562 -184.21875 58 -192.4375 C 72.28125 -200.65625 88.363281 -204.765625 106.25 -204.765625 C 124.132812 -204.765625 140.191406 -200.65625 154.421875 -192.4375 C 168.648438 -184.21875 179.898438 -172.359375 188.171875 -156.859375 C 196.441406 -141.367188 200.578125 -122.691406 200.578125 -100.828125 C 200.578125 -79.054688 196.441406 -60.421875 188.171875 -44.921875 C 179.898438 -29.429688 168.648438 -17.597656 154.421875 -9.421875 C 140.191406 -1.242188 124.132812 2.84375 106.25 2.84375 Z M 106.25 -33.875 C 116.726562 -33.875 125.894531 -36.445312 133.75 -41.59375 C 141.613281 -46.75 147.734375 -54.316406 152.109375 -64.296875 C 156.492188 -74.285156 158.6875 -86.460938 158.6875 -100.828125 C 158.6875 -115.285156 156.492188 -127.523438 152.109375 -137.546875 C 147.734375 -147.578125 141.613281 -155.164062 133.75 -160.3125 C 125.894531 -165.46875 116.726562 -168.046875 106.25 -168.046875 C 95.851562 -168.046875 86.703125 -165.445312 78.796875 -160.25 C 70.898438 -155.0625 64.757812 -147.472656 60.375 -137.484375 C 55.988281 -127.503906 53.796875 -115.285156 53.796875 -100.828125 C 53.796875 -86.460938 55.988281 -74.3125 60.375 -64.375 C 64.757812 -54.4375 70.898438 -46.867188 78.796875 -41.671875 C 86.703125 -36.472656 95.851562 -33.875 106.25 -33.875 Z M 106.25 -33.875 "/></g></g></g><g fill="#161616" fill-opacity="1"><g transform="translate(1272.60187, 824.813174)"><g><path d="M 17.484375 0 L 17.484375 -201.921875 L 63.15625 -201.921875 L 127.25 -99.46875 C 130.144531 -94.6875 133.238281 -89.332031 136.53125 -83.40625 C 139.832031 -77.488281 143.222656 -70.914062 146.703125 -63.6875 C 150.179688 -56.46875 153.632812 -48.609375 157.0625 -40.109375 L 152.59375 -37.671875 C 152.050781 -44.898438 151.550781 -52.691406 151.09375 -61.046875 C 150.644531 -69.410156 150.285156 -77.429688 150.015625 -85.109375 C 149.742188 -92.785156 149.609375 -99.195312 149.609375 -104.34375 L 149.609375 -201.921875 L 191.765625 -201.921875 L 191.765625 0 L 145.953125 0 L 87.8125 -92.828125 C 83.925781 -99.148438 80.15625 -105.539062 76.5 -112 C 72.84375 -118.46875 69.003906 -125.675781 64.984375 -133.625 C 60.960938 -141.570312 56.285156 -150.832031 50.953125 -161.40625 L 56.640625 -162.484375 C 57.179688 -152.640625 57.703125 -143.265625 58.203125 -134.359375 C 58.703125 -125.460938 59.085938 -117.445312 59.359375 -110.3125 C 59.628906 -103.175781 59.765625 -97.394531 59.765625 -92.96875 L 59.765625 0 Z M 17.484375 0 "/></g></g></g><path fill="#161616" d="M 322.925781 285.042969 C 166.9375 441.214844 36.253906 572.398438 32.519531 576.558594 C 17.789062 592.980469 11.5625 602.082031 13.230469 604.746094 C 14.539062 606.84375 17.433594 606.722656 24.753906 604.269531 C 40.699219 598.925781 66.917969 584.933594 135.765625 545.011719 C 151.792969 535.71875 154.609375 534.09375 307.578125 445.777344 C 388.339844 399.152344 457.933594 358.992188 462.238281 356.535156 L 470.0625 352.0625 L 510.679688 375.492188 C 557.617188 402.566406 657.777344 460.386719 672.773438 469.066406 C 678.394531 472.316406 687.25 477.433594 692.453125 480.4375 C 697.65625 483.4375 706.511719 488.558594 712.132812 491.8125 C 724.851562 499.167969 737.574219 506.515625 750.300781 513.855469 L 778.25 529.976562 L 913.757812 394.453125 L 990.472656 471.125 L 1067.1875 547.800781 L 1071.5625 543.179688 C 1073.972656 540.640625 1088.03125 525.484375 1102.804688 509.5 C 1156.089844 451.859375 1161.195312 446.375 1161.828125 446.125 C 1162.386719 445.90625 1168.394531 449.285156 1200.695312 467.976562 C 1204.027344 469.902344 1213.5625 475.410156 1221.890625 480.214844 C 1230.214844 485.023438 1241.113281 491.316406 1246.109375 494.207031 C 1397.886719 581.9375 1423.394531 596.453125 1434.949219 601.683594 C 1455.519531 610.988281 1449.597656 601.757812 1407.710938 559.203125 C 1364.445312 515.25 1035.59375 186.390625 1034.910156 186.390625 C 1034.507812 186.390625 1007.105469 213.464844 974.011719 246.5625 L 913.84375 306.734375 L 760.949219 153.84375 C 676.859375 69.753906 607.71875 0.984375 607.300781 1.023438 C 606.886719 1.0625 478.917969 128.871094 322.925781 285.042969 " fill-opacity="1" fill-rule="evenodd"/></g></g></svg>