<svg xmlns="http://www.w3.org/2000/svg" xmlns:xlink="http://www.w3.org/1999/xlink" width="2000" zoomAndPan="magnify" viewBox="0 0 1500 1499.999933" height="2000" preserveAspectRatio="xMidYMid meet" version="1.0"><path fill="#161616" d="M 351.582031 714.257812 C 197.011719 869.011719 67.515625 999 63.816406 1003.125 C 49.21875 1019.398438 43.050781 1028.414062 44.699219 1031.054688 C 46 1033.132812 48.867188 1033.015625 56.121094 1030.582031 C 71.921875 1025.289062 97.898438 1011.421875 166.125 971.863281 C 182.003906 962.65625 184.792969 961.046875 336.375 873.53125 C 416.398438 827.328125 485.363281 787.535156 489.628906 785.097656 L 497.382812 780.667969 L 537.628906 803.882812 C 584.140625 830.710938 683.390625 888.007812 698.25 896.609375 C 703.820312 899.832031 712.59375 904.898438 717.75 907.875 C 722.90625 910.847656 731.679688 915.921875 737.25 919.148438 C 749.851562 926.4375 762.460938 933.714844 775.070312 940.988281 L 802.765625 956.964844 L 869.90625 889.816406 L 937.042969 822.671875 L 1013.0625 898.648438 L 1089.078125 974.625 L 1093.414062 970.050781 C 1095.800781 967.53125 1109.730469 952.511719 1124.375 936.675781 C 1177.171875 879.554688 1182.234375 874.121094 1182.859375 873.875 C 1183.414062 873.660156 1189.367188 877.003906 1221.375 895.527344 C 1224.675781 897.4375 1234.125 902.894531 1242.375 907.65625 C 1250.625 912.417969 1261.425781 918.65625 1266.375 921.519531 C 1416.769531 1008.453125 1442.046875 1022.839844 1453.5 1028.019531 C 1473.878906 1037.238281 1468.015625 1028.09375 1426.507812 985.925781 C 1383.636719 942.371094 1057.773438 616.5 1057.09375 616.5 C 1056.695312 616.5 1029.542969 643.332031 996.75 676.125 L 937.128906 735.75 L 785.625 584.25 C 702.300781 500.925781 633.785156 432.78125 633.375 432.820312 C 632.960938 432.859375 506.15625 559.507812 351.582031 714.257812 " fill-opacity="1" fill-rule="evenodd"/></svg>